<?xml version="1.0" encoding="UTF-8"?>
<svg width="402px" height="409px" viewBox="0 0 402 409" xmlns="http://www.w3.org/2000/svg" xmlns:xlink="http://www.w3.org/1999/xlink" version="1.1">
 <!-- Generated by Pixelmator Pro 2.2 -->
 <defs>
  <path id="ccdd" d="M65.908 258.797 C62.552 259.017 60.721 258.568 58.792 257.051 57.364 255.928 54.879 252.644 53.27 249.755 51.66 246.865 49.201 241.575 47.805 238 46.409 234.425 44.274 227.675 43.062 223 41.849 218.325 40.777 211.575 40.679 208 40.5 201.5 40.5 201.5 44.986 201.181 47.453 201.006 49.679 200.654 49.933 200.4 50.187 200.146 49.548 198.506 48.514 196.754 47.479 195.003 41.789 187.555 35.87 180.204 27.727 170.092 23.613 163.874 18.976 154.669 15.171 147.116 11.913 138.896 10.386 133 8.974 127.548 7.667 118.97 7.317 112.868 6.96 106.633 7.199 98.404 7.897 92.968 8.55 87.87 10.645 78.929 12.551 73.099 14.457 67.27 17.25 60.281 18.758 57.568 20.266 54.856 22.024 52.468 22.664 52.263 23.305 52.058 25.303 54.053 27.104 56.695 28.906 59.338 32.788 64.536 35.73 68.247 38.673 71.958 43.76 77.224 47.034 79.949 50.309 82.674 56.035 86.714 59.76 88.927 63.485 91.14 69.264 94.06 72.604 95.417 75.943 96.774 82.597 98.85 87.389 100.029 92.182 101.209 96.805 101.905 97.663 101.576 98.729 101.167 99.078 100.109 98.762 98.238 98.509 96.732 96.204 90.453 93.64 84.284 91.076 78.116 88.033 69.116 86.877 64.284 85.274 57.586 84.765 52.164 84.734 41.45 84.706 31.861 85.218 25.073 86.347 20.073 87.257 16.043 89.198 10.081 90.66 6.824 92.648 2.393 93.772 0.978 95.124 1.201 96.117 1.366 101.038 6.124 106.057 11.776 111.077 17.428 118.689 25.14 122.972 28.914 127.255 32.688 134.084 38.02 138.147 40.762 142.211 43.504 149.161 47.595 153.591 49.852 158.022 52.11 164.764 55.133 168.574 56.571 172.383 58.009 179.55 60.083 184.5 61.18 191.585 62.75 199.565 63.354 222 64.019 245.321 64.711 251.886 65.227 258.13 66.86 262.326 67.958 269.369 70.672 273.781 72.89 278.26 75.142 284.44 79.365 287.773 82.45 291.056 85.49 295.938 91.352 298.621 95.476 301.305 99.6 303.842 102.98 304.259 102.987 304.677 102.994 306.188 101.313 307.616 99.25 309.044 97.188 313.029 90.775 316.47 85 319.91 79.225 323.424 74.362 324.277 74.193 325.502 73.951 325.949 75.213 326.4 80.193 326.715 83.662 327.096 94.695 327.247 104.711 327.404 115.034 327.951 123.325 328.512 123.852 329.126 124.43 332.524 123.887 337.5 122.414 343.775 120.558 347.897 120.042 356.616 120.024 367.36 120.001 367.967 120.118 374.789 123.531 378.671 125.473 383.319 128.735 385.118 130.781 388.389 134.5 388.389 134.5 378.183 135.061 372.57 135.37 367.521 136.079 366.963 136.637 366.276 137.324 367.007 138.972 369.224 141.732 371.026 143.975 375.287 148.767 378.693 152.381 382.679 156.61 386.15 161.616 388.434 166.429 390.386 170.542 392.549 176.022 393.241 178.608 393.934 181.194 394.5 188.55 394.5 194.955 394.5 202.614 394.038 207.609 393.149 209.55 391.797 212.5 391.797 212.5 388.395 208.579 386.498 206.393 384.034 204.623 382.827 204.579 381.224 204.52 380.47 205.278 379.921 207.5 379.513 209.15 378.876 214.1 378.505 218.5 378.133 222.9 376.717 229.875 375.357 234 373.997 238.125 371.062 244.65 368.834 248.5 366.606 252.35 363.882 256.288 362.781 257.25 361.297 258.547 359.027 259 354.011 259 347.556 259 347.193 258.873 346.163 256.25 345.569 254.738 344.13 244.95 342.966 234.5 341.802 224.05 340.409 213.784 339.869 211.688 339.127 208.798 338.444 207.951 337.048 208.188 336.036 208.359 331.673 211.875 327.354 216 323.034 220.125 316.682 224.992 313.238 226.815 309.793 228.639 303.901 231.204 300.144 232.517 296.387 233.83 289.305 235.632 284.407 236.522 279.508 237.412 271.38 238.222 266.344 238.32 261.308 238.419 256.838 238.155 256.411 237.734 255.984 237.312 256.504 235.896 257.567 234.587 258.63 233.278 261.591 229.631 264.147 226.483 266.703 223.335 269.916 218.451 271.289 215.629 272.661 212.808 274.508 207.651 275.392 204.169 276.276 200.687 277 196.736 277 195.388 277 194.04 276.348 192.687 275.551 192.381 274.754 192.076 273.517 192.316 272.801 192.915 272.086 193.514 269.25 195.552 266.5 197.444 263.75 199.335 257.45 203.647 252.5 207.026 247.55 210.405 237.65 216.019 230.5 219.502 223.35 222.985 213.437 227 208.471 228.425 203.505 229.85 195.63 231.687 190.971 232.507 185.392 233.488 175.807 233.998 162.899 233.999 151.243 233.999 142.022 233.555 140.149 232.902 138.246 232.239 137 231.117 137 230.066 137 228.706 139.23 227.733 147.25 225.593 152.887 224.089 161.708 220.872 166.852 218.445 171.995 216.017 178.97 212.048 182.352 209.624 185.733 207.201 190.67 203.067 193.323 200.438 195.976 197.809 199.715 193.744 201.631 191.405 203.548 189.066 205.638 185.769 206.276 184.08 207.226 181.562 207.162 180.734 205.92 179.491 204.684 178.255 203.456 178.155 199.272 178.948 196.449 179.484 190.621 180.805 186.32 181.885 182.019 182.965 174.9 184.446 170.5 185.175 166.1 185.904 155.075 186.5 146 186.5 135.806 186.5 126.825 185.962 122.5 185.094 118.65 184.32 112.125 182.621 108 181.319 103.875 180.016 98.394 178.678 95.82 178.344 91.14 177.738 91.14 177.738 90.621 181.119 90.335 182.979 89.834 188.775 89.507 194 89.18 199.225 88.001 208 86.887 213.5 85.773 219 82.884 229.316 80.467 236.425 78.049 243.534 74.802 251.409 73.249 253.925 70.645 258.147 70.079 258.523 65.908 258.797 Z M140 369.709 C109.422 369.866 98.347 369.601 94.792 368.624 92.203 367.913 88.226 366.042 85.953 364.468 83.681 362.893 80 359.556 77.773 357.052 75.547 354.549 72.681 350.168 71.405 347.318 70.129 344.467 68.381 337.942 67.521 332.818 66.66 327.693 65.234 321.836 64.35 319.803 63.27 317.317 61.558 315.557 59.122 314.429 57.13 313.507 54.48 311.822 53.233 310.686 51.986 309.549 50.48 306.996 49.885 305.012 49.033 302.167 49.125 300.638 50.319 297.78 51.152 295.786 52.938 293.431 54.289 292.546 55.64 291.661 59.297 290.521 62.415 290.014 67.3 289.219 68.935 288.321 74.231 283.529 77.783 280.314 82.091 277.447 84.438 276.734 87.404 275.833 100.782 275.5 134 275.5 179.019 275.5 179.548 275.523 184 277.725 186.475 278.949 190.75 281.921 193.5 284.331 198.5 288.711 198.5 288.711 213.494 289.218 228.489 289.725 228.489 289.725 234.381 284.393 237.622 281.46 242.349 278.26 244.887 277.281 249.063 275.669 253.727 275.5 294.109 275.5 334.281 275.5 339.078 275.672 342.34 277.225 344.333 278.174 348.667 281.436 351.973 284.475 356.898 289.003 358.621 290 361.523 290 363.471 290 366.595 290.64 368.466 291.421 370.357 292.211 372.563 294.187 373.434 295.872 374.295 297.538 374.998 300.386 374.995 302.2 374.992 304.015 374.204 306.639 373.245 308.031 372.285 309.423 368.985 313.023 365.911 316.031 360.323 321.5 360.323 321.5 358.154 332.5 356.961 338.55 354.808 345.908 353.369 348.851 351.931 351.795 348.393 356.564 345.508 359.449 342.622 362.334 338.065 365.776 335.381 367.097 330.5 369.5 330.5 369.5 290 369.5 258.99 369.5 248.464 369.186 245.078 368.158 242.064 367.244 238.842 365.002 234.953 361.113 231.816 357.976 228.282 353.512 227.099 351.194 225.916 348.875 224.512 343.495 223.98 339.239 223.448 334.982 222.873 327.053 222.704 321.619 222.412 312.253 222.253 311.614 219.642 309.369 218.128 308.066 215.745 307 214.349 307 212.952 307 210.501 307.772 208.903 308.716 207.305 309.66 205.723 311.297 205.388 312.354 205.052 313.411 204.438 321.191 204.024 329.642 203.313 344.13 203.088 345.378 200.093 351.463 198.225 355.258 195.183 359.411 192.708 361.545 190.394 363.541 186.7 366.148 184.5 367.337 180.607 369.442 179.413 369.506 140 369.709 Z M142.5 351.632 C169.547 351.504 173.896 351.27 176.602 349.794 178.307 348.863 181.074 346.541 182.75 344.632 185.599 341.388 185.844 340.469 186.524 330.49 186.924 324.62 187.038 316.499 186.778 312.443 186.417 306.824 185.733 304.233 183.902 301.559 182.581 299.628 180.019 297.25 178.209 296.274 175.203 294.654 171.197 294.5 132.04 294.5 89.162 294.5 89.162 294.5 86.564 296.94 85.135 298.282 83.48 301.004 82.885 302.99 82.105 305.594 82.117 309.23 82.928 316.05 83.547 321.247 84.52 328.2 85.092 331.5 85.664 334.8 87.231 339.184 88.574 341.241 89.918 343.299 92.891 346.224 95.182 347.741 98.049 349.64 101.241 350.699 105.424 351.139 108.766 351.491 125.45 351.713 142.5 351.632 Z M297.5 351.317 C310.7 351.097 322.862 350.71 324.526 350.456 326.191 350.201 329.241 348.601 331.305 346.9 333.369 345.199 335.94 342.077 337.019 339.963 338.097 337.849 339.66 332.155 340.491 327.31 341.323 322.464 342.102 314.9 342.222 310.5 342.391 304.318 342.048 301.913 340.714 299.915 339.764 298.494 337.795 296.694 336.339 295.915 334.178 294.761 326.098 294.5 292.438 294.5 251.185 294.5 251.185 294.5 247.342 297.604 245.229 299.311 243.063 301.933 242.53 303.431 241.996 304.929 241.546 313.959 241.53 323.499 241.502 339.482 241.662 341.061 243.562 343.61 244.696 345.132 246.863 347.304 248.379 348.438 250.626 350.12 253.197 350.612 262.317 351.108 268.468 351.442 284.3 351.536 297.5 351.317 Z"/>
 </defs>
 <use id="ccdd-1" xlink:href="#ccdd" fill="#000000" fill-opacity="1" stroke="none"/>
 <defs>
  <path id="stroke-path" d="M182.703 60.266 L171.156 56.953 155.563 50.297 140 41.406 128.859 33.203 118.484 24.047 98.688 3.375 95.688 0.891 94.031 0.797 91.875 3.234 89.906 7.281 87.234 14.844 85.625 20.938 84.359 33.219 84.406 50.203 85.172 58.266 86.609 65.359 90.688 78.063 97.953 97.109 98.359 99.203 98.031 100.625 96.75 101.156 91.781 100.484 77.641 96.703 68.25 92.906 57.734 87.078 47.953 80.078 42.359 74.906 36.125 67.953 25.75 54.109 22.688 51.578 20.906 53.313 18 57.891 13.219 69.563 9.578 81.844 7.266 93.953 6.641 106.594 7.094 116.578 9.109 129.766 11.813 139.297 17.813 153.469 24.703 165.891 31.266 175.172 45.266 193.063 49.016 198.828 49.266 200.031 41.984 201.047 40.797 201.781 40.328 202.719 40.141 206.844 40.516 212.188 43.047 224.953 47.891 239.594 53.828 251.672 56.828 255.797 59.609 258.25 62.141 259.172 65.953 259.297 70.203 258.438 71.594 257.234 73.203 254.938 76.484 248.281 81.391 235.234 85.078 222.938 87.359 213.594 89.328 201.078 91.188 180.656 91.734 178.875 92.641 178.563 99.609 179.594 123.25 185.766 130.516 186.531 140.391 186.953 154.828 186.844 167.453 186.078 176.375 184.594 201.375 179.109 203.906 179 205.766 180.094 206.406 181.609 205.984 183.422 202.266 189.766 193.969 199.094 186.297 205.953 178 211.859 165.656 218.438 155.703 222.391 141.125 226.844 137.609 228.344 136.422 229.891 137.266 231.797 139.609 233.25 141.828 233.75 149.375 234.266 162.891 234.5 184.641 233.797 192.906 232.656 209.594 228.625 226.438 221.953 241.047 214.516 251.797 208.109 273.156 193.266 274.391 192.797 275.359 192.875 275.781 193.234 276.469 195.719 274.906 204.078 272.484 211.547 270.563 215.984 267.234 221.422 256.578 235.078 255.656 237.594 256.859 238.469 267.313 238.797 281.438 237.516 290.656 235.703 301.781 232.469 308.797 229.531 315.703 225.938 323.172 220.375 334.406 210.484 336.828 208.813 337.672 208.688 338.188 208.953 338.688 209.75 339.766 213.781 343.828 245.719 345.875 256.938 347.234 258.813 349.453 259.406 356.594 259.453 361.297 258.703 363.906 256.797 368.391 250.219 371.5 244.5 374.906 236.719 376.594 231.578 378 225.406 379.891 210.594 380.938 206.109 382.141 205.172 384.047 205.547 386.203 207.109 390.422 211.547 391.703 212.281 392.906 211.203 394.078 208.281 394.859 201.391 394.844 188.828 394.109 180.422 392.406 174.563 388.438 165.313 385.234 159.813 381.266 154.531 369.625 141.438 367.969 139.172 367.25 137.563 367.422 137.016 370 136.375 386.188 134.859 387.609 133.984 387.172 132.5 384.172 129.156 378.797 125.25 371.672 121.469 366.813 119.922 358.547 119.531 347.188 119.906 340.734 121.031 331.891 123.313 328.906 123.359 328.5 121.266 327.984 113.609 327.016 81.703 326.438 76.422 325.281 73.75 323.719 73.875 321.453 76.5 307.797 98.078 305.625 101.047 304.281 102.25 294.547 89.141 287.469 81.5 282.422 77.609 274.859 72.891 262.891 67.828 257.063 66.094 248.438 64.75 204.781 62.891 188.688 61.484 182.703 60.281 Z M167.109 370 L179.844 369.375 182.891 368.656 185.172 367.547 193.031 361.922 196.516 358.109 199.359 353.875 201.969 348.625 203.063 345.359 203.891 339.984 205.047 320.75 205.938 312.328 207.219 310.641 209.156 309.141 211.5 308.094 214.313 307.516 216.375 308.016 219.063 309.563 220.625 311.047 221.453 312.656 223.469 339.313 224.594 345.25 226.422 350.969 229.359 355.484 234 360.859 238.094 364.688 241.922 367.359 244.938 368.656 248.406 369.25 266.438 369.906 317.578 369.938 327.094 369.656 332.547 368.844 337.313 366.594 344.063 361.5 348.703 356.625 352.797 350.922 354.703 346.969 356.656 340.859 361.031 322.781 362.734 320.016 369.703 312.891 373.859 308.016 375.422 303.359 374.906 298.438 373.219 294.609 369.813 291.547 365.594 290.047 360.047 289.391 358.266 288.797 343.938 277.547 340.703 276.109 337.109 275.578 322.547 275.094 280.078 275.016 258.563 275.203 249.234 275.734 245.094 276.672 241.719 278.344 237.438 281.234 229.281 287.766 226.781 288.609 223.016 288.922 206.516 288.469 199.422 287.625 196.531 286.203 190.875 281.578 184.703 277.531 181.281 276.094 177.328 275.484 164.766 275.078 108.313 275.109 90.469 275.547 84.281 276.25 78.813 279.234 69.797 286.625 67.625 288 64.703 289.078 58.078 290.484 53.719 292.328 50.438 296.391 48.844 300.953 49.516 305.547 52.109 310.25 54.797 312.547 60.859 316.078 62.172 317.297 63.719 319.625 65.25 324.438 69.078 342.031 70.688 346.953 72.563 350.609 76.953 356.906 82.625 362.484 87.125 365.813 94.141 368.969 98.25 369.672 104.703 370.031 140 370.219 Z M87.266 337.359 L85.688 332 84.219 322.281 83.047 312.469 82.875 305.828 83.781 302.016 86.094 298.188 87.563 296.734 89.281 295.891 95.344 295.266 145.625 295.016 169.766 295.328 174.578 295.734 177.703 296.609 181.234 299.266 183.844 302.391 185.25 305.453 186.031 309.594 186.344 323.297 185.219 338.797 184.406 341.469 182.906 343.672 177.313 348.75 175.578 349.719 173.375 350.281 161.875 350.953 142.5 351.141 114 350.984 104.719 350.563 98.172 348.828 95.063 347.063 92.297 344.75 89.25 341.375 Z M339.203 298.875 L340.531 300.578 341.188 302.125 341.703 305.766 341.688 311.359 340.875 320.984 339.828 328.156 339.844 328.156 338.125 335.406 336.781 339.281 332.953 344.625 328.859 348.016 324.406 349.969 297.484 350.828 272.594 350.891 257.891 350.328 250.891 349.234 249.063 348.313 246.797 346.438 244.406 343.906 243.016 341.719 242.375 339.063 242.094 334.75 242.078 318.234 242.563 306.891 243.125 303.328 245.031 300.547 249.266 296.813 251.844 295.891 254.891 295.469 273.172 295.031 323.609 295.203 332.641 295.641 335.891 296.266 Z"/>
 </defs>
 <use id="ccdd-2" stroke="#c9c9c9" stroke-opacity="1" stroke-linecap="round" fill="none" stroke-width="1" xlink:href="#stroke-path"/>
</svg>
